<svg xmlns="http://www.w3.org/2000/svg" viewBox="0 0 400 600">
  <!-- Hands -->
  <g fill="#2D5A3D">
    <!-- Left Hand -->
    <path d="M108 360 C108 360 120 340 140 330 C160 320 180 325 190 340 C200 355 195 370 185 380 C175 390 160 395 150 400 C140 405 130 410 120 415 C110 420 105 425 108 430 C111 435 120 440 130 445 C140 450 150 455 160 460 C170 465 175 470 175 475 C175 480 170 485 160 490 C150 495 140 500 130 505 C120 510 110 515 108 520 L108 360 Z"/>
    
    <!-- Right Hand -->
    <path d="M292 360 C292 360 280 340 260 330 C240 320 220 325 210 340 C200 355 205 370 215 380 C225 390 240 395 250 400 C260 405 270 410 280 415 C290 420 295 425 292 430 C289 435 280 440 270 445 C260 450 250 455 240 460 C230 465 225 470 225 475 C225 480 230 485 240 490 C250 495 260 500 270 505 C280 510 290 515 292 520 L292 360 Z"/>
  </g>
  
  <!-- Central Circle -->
  <circle cx="200" cy="250" r="15" fill="#2D5A3D"/>
  
  <!-- Lotus/Leaf Pattern -->
  <g>
    <!-- Outer leaves - light green -->
    <g fill="#A4C67C">
      <!-- Top leaves -->
      <ellipse cx="200" cy="180" rx="12" ry="25" transform="rotate(0 200 180)"/>
      <ellipse cx="220" cy="185" rx="12" ry="25" transform="rotate(20 220 185)"/>
      <ellipse cx="180" cy="185" rx="12" ry="25" transform="rotate(-20 180 185)"/>
      <ellipse cx="235" cy="200" rx="12" ry="25" transform="rotate(40 235 200)"/>
      <ellipse cx="165" cy="200" rx="12" ry="25" transform="rotate(-40 165 200)"/>
      
      <!-- Side leaves -->
      <ellipse cx="245" cy="220" rx="12" ry="25" transform="rotate(60 245 220)"/>
      <ellipse cx="155" cy="220" rx="12" ry="25" transform="rotate(-60 155 220)"/>
      <ellipse cx="250" cy="245" rx="12" ry="25" transform="rotate(80 250 245)"/>
      <ellipse cx="150" cy="245" rx="12" ry="25" transform="rotate(-80 150 245)"/>
      
      <!-- Lower leaves -->
      <ellipse cx="245" cy="270" rx="12" ry="25" transform="rotate(100 245 270)"/>
      <ellipse cx="155" cy="270" rx="12" ry="25" transform="rotate(-100 155 270)"/>
      <ellipse cx="235" cy="290" rx="12" ry="25" transform="rotate(120 235 290)"/>
      <ellipse cx="165" cy="290" rx="12" ry="25" transform="rotate(-120 165 290)"/>
    </g>
    
    <!-- Middle leaves - medium green -->
    <g fill="#7FB069">
      <ellipse cx="200" cy="190" rx="10" ry="22" transform="rotate(0 200 190)"/>
      <ellipse cx="215" cy="195" rx="10" ry="22" transform="rotate(25 215 195)"/>
      <ellipse cx="185" cy="195" rx="10" ry="22" transform="rotate(-25 185 195)"/>
      <ellipse cx="225" cy="210" rx="10" ry="22" transform="rotate(50 225 210)"/>
      <ellipse cx="175" cy="210" rx="10" ry="22" transform="rotate(-50 175 210)"/>
      <ellipse cx="230" cy="230" rx="10" ry="22" transform="rotate(75 230 230)"/>
      <ellipse cx="170" cy="230" rx="10" ry="22" transform="rotate(-75 170 230)"/>
      <ellipse cx="225" cy="250" rx="10" ry="22" transform="rotate(100 225 250)"/>
      <ellipse cx="175" cy="250" rx="10" ry="22" transform="rotate(-100 175 250)"/>
      <ellipse cx="215" cy="270" rx="10" ry="22" transform="rotate(125 215 270)"/>
      <ellipse cx="185" cy="270" rx="10" ry="22" transform="rotate(-125 185 270)"/>
    </g>
    
    <!-- Inner leaves - dark green -->
    <g fill="#2D5A3D">
      <ellipse cx="200" cy="200" rx="8" ry="20" transform="rotate(0 200 200)"/>
      <ellipse cx="210" cy="205" rx="8" ry="20" transform="rotate(30 210 205)"/>
      <ellipse cx="190" cy="205" rx="8" ry="20" transform="rotate(-30 190 205)"/>
      <ellipse cx="215" cy="220" rx="8" ry="20" transform="rotate(60 215 220)"/>
      <ellipse cx="185" cy="220" rx="8" ry="20" transform="rotate(-60 185 220)"/>
      <ellipse cx="210" cy="235" rx="8" ry="20" transform="rotate(90 210 235)"/>
      <ellipse cx="190" cy="235" rx="8" ry="20" transform="rotate(-90 190 235)"/>
      <ellipse cx="200" cy="250" rx="8" ry="20" transform="rotate(120 200 250)"/>
    </g>
  </g>
  
  <!-- Text -->
  <g>
    <!-- JARIAH - Dark Green -->
    <text x="200" y="420" text-anchor="middle" font-family="Arial, sans-serif" font-size="48" font-weight="bold" fill="#2D5A3D">JARIAH</text>
    
    <!-- FUND - Light Green -->
    <text x="200" y="480" text-anchor="middle" font-family="Arial, sans-serif" font-size="48" font-weight="normal" fill="#A4C67C">FUND</text>
  </g>
</svg>
